<svg xmlns="http://www.w3.org/2000/svg" xmlns:xlink="http://www.w3.org/1999/xlink" width="500" zoomAndPan="magnify" viewBox="0 0 375 374.999991" height="500" preserveAspectRatio="xMidYMid meet" version="1.0"><defs><g/><clipPath id="dbeacec1eb"><path d="M 130 108 L 241 108 L 241 201.828125 L 130 201.828125 Z M 130 108 " clip-rule="nonzero"/></clipPath><clipPath id="4c65cb525e"><path d="M 127.332031 101 L 247 101 L 247 201.828125 L 127.332031 201.828125 Z M 127.332031 101 " clip-rule="nonzero"/></clipPath></defs><g clip-path="url(#dbeacec1eb)"><path fill="#50b948" d="M 140.101562 171.921875 C 143.210938 170.28125 147.105469 171.5 148.761719 174.640625 C 150.414062 177.777344 149.222656 181.675781 146.109375 183.316406 C 142.996094 184.957031 139.109375 183.734375 137.460938 180.59375 C 135.804688 177.460938 136.996094 173.5625 140.101562 171.921875 M 137.785156 147.980469 L 210.171875 109.824219 C 214.800781 107.386719 215.878906 108.957031 218.082031 113.144531 L 239.902344 154.542969 C 241.597656 157.757812 240.375 161.769531 237.179688 163.453125 L 201.863281 182.074219 L 209.476562 148.453125 C 209.90625 146.917969 208.292969 145.515625 206.824219 146.152344 L 194.753906 151.484375 L 198.070312 124.019531 C 198.257812 122.417969 196.304688 121.273438 195.003906 122.226562 L 174.804688 137.007812 C 174.457031 137.257812 174 138.222656 174.03125 138.660156 L 175.808594 175.671875 C 175.875 177.015625 177.386719 177.90625 178.597656 177.300781 L 191.460938 170.9375 L 191.117188 187.734375 L 167.367188 200.257812 C 166.121094 200.90625 164.441406 201.636719 163.140625 201 L 133.023438 186.320312 C 131.089844 185.378906 130.125 183.53125 130.433594 181.402344 L 134.785156 151.046875 C 134.996094 149.613281 136.550781 148.636719 137.785156 147.980469 Z M 137.785156 147.980469 " fill-opacity="1" fill-rule="evenodd"/></g><g clip-path="url(#4c65cb525e)"><path fill="#1f1a17" d="M 142.667969 173.300781 C 142.226562 173.300781 141.800781 173.40625 141.410156 173.613281 C 140.777344 173.945312 140.3125 174.515625 140.09375 175.207031 C 139.878906 175.898438 139.949219 176.628906 140.285156 177.269531 C 140.960938 178.546875 142.648438 179.089844 143.9375 178.40625 C 144.578125 178.070312 145.046875 177.5 145.265625 176.808594 C 145.480469 176.113281 145.414062 175.382812 145.078125 174.75 C 144.609375 173.855469 143.6875 173.300781 142.667969 173.300781 M 142.691406 181.800781 C 140.527344 181.800781 138.5625 180.617188 137.558594 178.707031 C 136.835938 177.347656 136.691406 175.777344 137.148438 174.296875 C 137.605469 172.816406 138.609375 171.605469 139.972656 170.882812 C 142.722656 169.429688 146.371094 170.574219 147.808594 173.308594 C 148.53125 174.675781 148.671875 176.242188 148.214844 177.722656 C 147.75 179.203125 146.746094 180.417969 145.378906 181.132812 C 144.554688 181.570312 143.625 181.800781 142.691406 181.800781 Z M 214.21875 104.097656 C 213.347656 104.097656 212.511719 104.300781 211.742188 104.707031 L 138.4375 143.351562 C 136.96875 144.125 136.179688 144.820312 136.085938 145.429688 L 130.816406 180.019531 C 130.585938 181.5625 131.261719 182.84375 132.671875 183.527344 L 164.1875 198.734375 C 164.867188 199.050781 166.339844 198.433594 167.226562 197.972656 L 189.519531 186.21875 L 189.796875 172.703125 L 179.082031 178.003906 C 176.964844 179.058594 174.160156 177.398438 174.042969 175.046875 L 172.25 137.675781 C 172.195312 136.730469 172.898438 135.242188 173.667969 134.683594 L 194.058594 119.765625 C 195.457031 118.738281 197.578125 119.035156 198.746094 120.34375 C 199.40625 121.085938 199.707031 122.035156 199.589844 123.003906 L 196.578125 148.042969 L 206.28125 143.761719 C 207.761719 143.121094 209.515625 143.613281 210.480469 144.890625 C 211.144531 145.765625 211.359375 146.863281 211.066406 147.90625 L 203.53125 178.832031 L 240.535156 159.324219 C 243.144531 157.949219 244.144531 154.707031 242.773438 152.101562 L 218.976562 106.949219 C 218.046875 105.191406 216.226562 104.097656 214.21875 104.097656 Z M 164.691406 201.917969 C 164.019531 201.917969 163.398438 201.78125 162.84375 201.511719 L 131.328125 186.304688 C 128.695312 185.027344 127.335938 182.441406 127.769531 179.558594 L 133.035156 144.964844 C 133.375 142.761719 135.460938 141.429688 137.003906 140.621094 L 210.308594 101.980469 C 214.3125 99.878906 219.609375 101.542969 221.707031 105.511719 L 245.5 150.660156 C 247.667969 154.773438 246.089844 159.886719 241.976562 162.058594 L 201.941406 183.15625 C 201.40625 183.4375 200.75 183.378906 200.273438 183.007812 C 199.792969 182.636719 199.578125 182.015625 199.726562 181.425781 L 208.085938 147.125 C 207.929688 146.632812 207.789062 146.554688 207.660156 146.554688 L 195.34375 151.960938 C 194.84375 152.199219 194.25 152.117188 193.800781 151.792969 C 193.351562 151.460938 193.125 150.917969 193.191406 150.367188 L 196.527344 122.636719 C 196.335938 122.277344 196.175781 122.199219 196.039062 122.199219 L 175.480469 137.175781 C 175.503906 137.191406 175.347656 137.519531 175.324219 137.65625 L 177.121094 174.898438 C 177.136719 175.105469 177.378906 175.273438 177.574219 175.273438 L 190.707031 168.8125 C 191.1875 168.578125 191.761719 168.605469 192.214844 168.894531 C 192.671875 169.183594 192.945312 169.683594 192.933594 170.226562 L 192.585938 187.1875 C 192.574219 187.75 192.261719 188.257812 191.765625 188.523438 L 168.664062 200.699219 C 167.582031 201.265625 166.15625 201.917969 164.691406 201.917969 Z M 164.691406 201.917969 " fill-opacity="1" fill-rule="evenodd"/></g><g fill="#1f1a17" fill-opacity="1"><g transform="translate(59.893528, 240.356586)"><g><path d="M 12.6875 0.4375 C 10.476562 0.4375 8.515625 -0.0390625 6.796875 -1 C 5.085938 -1.957031 3.75 -3.28125 2.78125 -4.96875 C 1.8125 -6.664062 1.328125 -8.617188 1.328125 -10.828125 C 1.328125 -13.035156 1.804688 -14.984375 2.765625 -16.671875 C 3.722656 -18.367188 5.050781 -19.695312 6.75 -20.65625 C 8.457031 -21.613281 10.40625 -22.09375 12.59375 -22.09375 C 14.34375 -22.09375 15.957031 -21.78125 17.4375 -21.15625 C 18.925781 -20.539062 20.191406 -19.671875 21.234375 -18.546875 C 22.273438 -17.421875 23.015625 -16.097656 23.453125 -14.578125 L 18.15625 -14.578125 C 17.644531 -15.523438 16.910156 -16.257812 15.953125 -16.78125 C 14.992188 -17.3125 13.90625 -17.578125 12.6875 -17.578125 C 11.425781 -17.578125 10.3125 -17.285156 9.34375 -16.703125 C 8.375 -16.128906 7.613281 -15.335938 7.0625 -14.328125 C 6.519531 -13.316406 6.25 -12.148438 6.25 -10.828125 C 6.25 -9.523438 6.515625 -8.367188 7.046875 -7.359375 C 7.585938 -6.347656 8.34375 -5.546875 9.3125 -4.953125 C 10.28125 -4.367188 11.425781 -4.078125 12.75 -4.078125 C 14.332031 -4.078125 15.648438 -4.476562 16.703125 -5.28125 C 17.753906 -6.09375 18.4375 -7.160156 18.75 -8.484375 L 11.71875 -8.484375 L 11.71875 -12.28125 L 23.953125 -12.28125 C 24.066406 -10.425781 23.878906 -8.722656 23.390625 -7.171875 C 22.910156 -5.628906 22.171875 -4.285156 21.171875 -3.140625 C 20.171875 -1.992188 18.953125 -1.109375 17.515625 -0.484375 C 16.085938 0.128906 14.476562 0.4375 12.6875 0.4375 Z M 12.6875 0.4375 "/></g></g></g><g fill="#1f1a17" fill-opacity="1"><g transform="translate(86.685633, 240.356586)"><g><path d="M 16 0 L 16 -8.71875 L 7.515625 -8.71875 L 7.515625 0 L 2.59375 0 L 2.59375 -21.65625 L 7.515625 -21.65625 L 7.515625 -13.328125 L 16 -13.328125 L 16 -21.65625 L 20.90625 -21.65625 L 20.90625 0 Z M 16 0 "/></g></g></g><g fill="#1f1a17" fill-opacity="1"><g transform="translate(111.74524, 240.356586)"><g><path d="M 2.59375 0 L 2.59375 -21.65625 L 7.515625 -21.65625 L 7.515625 0 Z M 2.59375 0 "/></g></g></g><g fill="#1f1a17" fill-opacity="1"><g transform="translate(123.40892, 240.356586)"><g><path d="M 2.59375 0 L 2.59375 -21.65625 L 11.84375 -21.65625 C 13.5 -21.65625 14.929688 -21.351562 16.140625 -20.75 C 17.359375 -20.15625 18.296875 -19.300781 18.953125 -18.1875 C 19.617188 -17.070312 19.953125 -15.742188 19.953125 -14.203125 C 19.953125 -12.609375 19.585938 -11.238281 18.859375 -10.09375 C 18.140625 -8.957031 17.132812 -8.097656 15.84375 -7.515625 L 20.328125 0 L 14.640625 0 L 10.765625 -6.75 L 7.515625 -6.75 L 7.515625 0 Z M 7.453125 -10.890625 L 11.203125 -10.890625 C 12.421875 -10.890625 13.351562 -11.171875 14 -11.734375 C 14.644531 -12.304688 14.96875 -13.117188 14.96875 -14.171875 C 14.96875 -15.222656 14.644531 -16.03125 14 -16.59375 C 13.351562 -17.164062 12.421875 -17.453125 11.203125 -17.453125 L 7.453125 -17.453125 Z M 7.453125 -10.890625 "/></g></g></g><g fill="#1f1a17" fill-opacity="1"><g transform="translate(146.736029, 240.356586)"><g/></g></g><g fill="#1f1a17" fill-opacity="1"><g transform="translate(155.55345, 240.356586)"><g><path d="M 2.59375 0 L 2.59375 -21.65625 L 7.515625 -21.65625 L 7.515625 -4.609375 L 16.984375 -4.609375 L 16.984375 0 Z M 2.59375 0 "/></g></g></g><g fill="#1f1a17" fill-opacity="1"><g transform="translate(174.92056, 240.356586)"><g><path d="M 0.28125 0 L 8.875 -21.65625 L 13.703125 -21.65625 L 22.3125 0 L 17.046875 0 L 15.59375 -3.75 L 6.984375 -3.75 L 5.53125 0 Z M 8.265625 -7.609375 L 14.359375 -7.609375 L 11.296875 -15.53125 Z M 8.265625 -7.609375 "/></g></g></g><g fill="#1f1a17" fill-opacity="1"><g transform="translate(199.052039, 240.356586)"><g><path d="M 2.59375 0 L 2.59375 -21.65625 L 16.1875 -21.65625 L 16.1875 -17.203125 L 7.515625 -17.203125 L 7.515625 -11.78125 L 15.375 -11.78125 L 15.375 -7.453125 L 7.515625 -7.453125 L 7.515625 0 Z M 2.59375 0 "/></g></g></g><g fill="#1f1a17" fill-opacity="1"><g transform="translate(218.140714, 240.356586)"><g><path d="M 2.59375 0 L 2.59375 -21.65625 L 16.1875 -21.65625 L 16.1875 -17.203125 L 7.515625 -17.203125 L 7.515625 -11.78125 L 15.375 -11.78125 L 15.375 -7.453125 L 7.515625 -7.453125 L 7.515625 0 Z M 2.59375 0 "/></g></g></g><g fill="#1f1a17" fill-opacity="1"><g transform="translate(237.22939, 240.356586)"><g><path d="M 0.28125 0 L 8.875 -21.65625 L 13.703125 -21.65625 L 22.3125 0 L 17.046875 0 L 15.59375 -3.75 L 6.984375 -3.75 L 5.53125 0 Z M 8.265625 -7.609375 L 14.359375 -7.609375 L 11.296875 -15.53125 Z M 8.265625 -7.609375 "/></g></g></g><g fill="#1f1a17" fill-opacity="1"><g transform="translate(261.360869, 240.356586)"><g><path d="M 2.59375 0 L 2.59375 -21.65625 L 7.515625 -21.65625 L 7.515625 0 Z M 2.59375 0 "/></g></g></g><g fill="#1f1a17" fill-opacity="1"><g transform="translate(273.02455, 240.356586)"><g><path d="M 2.59375 0 L 2.59375 -21.65625 L 11.84375 -21.65625 C 13.5 -21.65625 14.929688 -21.351562 16.140625 -20.75 C 17.359375 -20.15625 18.296875 -19.300781 18.953125 -18.1875 C 19.617188 -17.070312 19.953125 -15.742188 19.953125 -14.203125 C 19.953125 -12.609375 19.585938 -11.238281 18.859375 -10.09375 C 18.140625 -8.957031 17.132812 -8.097656 15.84375 -7.515625 L 20.328125 0 L 14.640625 0 L 10.765625 -6.75 L 7.515625 -6.75 L 7.515625 0 Z M 7.453125 -10.890625 L 11.203125 -10.890625 C 12.421875 -10.890625 13.351562 -11.171875 14 -11.734375 C 14.644531 -12.304688 14.96875 -13.117188 14.96875 -14.171875 C 14.96875 -15.222656 14.644531 -16.03125 14 -16.59375 C 13.351562 -17.164062 12.421875 -17.453125 11.203125 -17.453125 L 7.453125 -17.453125 Z M 7.453125 -10.890625 "/></g></g></g><g fill="#1f1a17" fill-opacity="1"><g transform="translate(296.351659, 240.356586)"><g><path d="M 2.59375 0 L 2.59375 -21.65625 L 16.828125 -21.65625 L 16.828125 -17.515625 L 7.484375 -17.515625 L 7.484375 -13.03125 L 16 -13.03125 L 16 -8.90625 L 7.484375 -8.90625 L 7.484375 -4.171875 L 17.171875 -4.171875 L 17.171875 0 Z M 2.59375 0 "/></g></g></g></svg>